<svg width="143" height="120" viewBox="0 0 143 120" fill="none" xmlns="http://www.w3.org/2000/svg">
<path opacity="0.6" d="M66.0082 0.543945V31.811C66.0082 41.3069 64.2711 51.4397 60.797 62.2095C57.4387 72.8634 52.4591 83.2279 45.8583 93.3028C39.3733 103.262 31.4986 111.947 22.2343 119.359L0 101.293C7.29564 90.8709 13.6069 80.0433 18.9339 68.8103C24.3767 57.4615 27.0981 45.36 27.0981 32.5058V0.543945H66.0082ZM142.945 0.543945V31.811C142.945 41.3069 141.208 51.4397 137.734 62.2095C134.376 72.8634 129.396 83.2279 122.796 93.3028C116.311 103.262 108.436 111.947 99.1716 119.359L76.9373 101.293C84.233 90.8709 90.5443 80.0433 95.8712 68.8103C101.314 57.4615 104.035 45.36 104.035 32.5058V0.543945H142.945Z" fill="#B9DFD1"/>
</svg>
